# xmcd
#
# Track frame offsets: 
#        150
#        22566
#        45518
#        67846
#        87603
#        112334
#        138371
#        160532
#        186590
#        231474
#
# Disc length: 3485 seconds
#
# Revision: 0
# Processed by: cddbd v1.5.2PL0 Copyright (c) Steve Scherf et al.
# Submitted via: ExactAudioCopy v1.0b3
#
DISCID=810d9b0a
DTITLE=Duy Khanh - Bai Huong Ca Vo Tan
DYEAR=2002
DGENRE=
TTITLE0=Tram nam ben cu
TTITLE1=May do thu ve
TTITLE2=Bai huong ca vo tan
TTITLE3=Tieng song Huong
TTITLE4=Tam anh ngay xua
TTITLE5=Tam su nguoi hat bai que huong
TTITLE6=Lay troi con duoc binh yen
TTITLE7=Hon Vong Phu 1
TTITLE8=Hon Vong Phu 2
TTITLE9=Hon Vong Phu 3
EXTD=
EXTT0=
EXTT1=
EXTT2=
EXTT3=
EXTT4=
EXTT5=
EXTT6=
EXTT7=
EXTT8=
EXTT9=
PLAYORDER=
